HIERARCHY
ROOT ui
{
	 OFFSET 0 0 0
	 CHANNELS 3 XPosition YPosition Z Position
	 EndSite
	 {
	 OFFSET 0 -1 0
	 }
}
ROOT li
{
	 OFFSET 0 0 0
	 CHANNELS 3 XPosition YPosition Z Position
	 EndSite
	 {
	 OFFSET 0 -1 0
	 }
}
ROOT ul
{
	 OFFSET 0 0 0
	 CHANNELS 3 XPosition YPosition Z Position
	 EndSite
	 {
	 OFFSET 0 -1 0
	 }
}
ROOT ll
{
	 OFFSET 0 0 0
	 CHANNELS 3 XPosition YPosition Z Position
	 EndSite
	 {
	 OFFSET 0 -1 0
	 }
}
ROOT tt
{
	 OFFSET 0 0 0
	 CHANNELS 3 XPosition YPosition Z Position
	 EndSite
	 {
	 OFFSET 0 -1 0
	 }
}
ROOT tb
{
	 OFFSET 0 0 0
	 CHANNELS 3 XPosition YPosition Z Position
	 EndSite
	 {
	 OFFSET 0 -1 0
	 }
}
ROOT td
{
	 OFFSET 0 0 0
	 CHANNELS 3 XPosition YPosition Z Position
	 EndSite
	 {
	 OFFSET 0 -1 0
	 }
}
ROOT v
{
	 OFFSET 0 0 0
	 CHANNELS 3 XPosition YPosition Z Position
	 EndSite
	 {
	 OFFSET 0 -1 0
	 }
}
ROOT bn
{
	 OFFSET 0 0 0
	 CHANNELS 3 XPosition YPosition Z Position
	 EndSite
	 {
	 OFFSET 0 -1 0
	 }
}
MOTION
Frames: 32
Frame Time: 0.002
-0.021995689392089842	0.003422916889190674	0		0.5067853393554688	-2.43037060546875	0		-1.0888515625	0.13342527770996093	0		-0.6060814208984375	-2.581593994140625	0		2.2045341796875	-0.15521719360351563	0		3.576206787109375	-0.12961830139160158	0		4.8754423828125	-0.07172547149658202	0		5.84331640625	0.39367849731445315	0		-0.2611270446777344	5.89961083984375	0		
-0.00348413610458374	-0.004752699851989746	0		0.5064230346679688	-2.43021337890625	0		-1.0891934814453126	0.13359503173828124	0		-0.6780241088867187	-2.557150146484375	0		2.213135009765625	-0.1582332305908203	0		3.583057373046875	-0.11861181640625	0		4.8750986328125	-0.07160292816162109	0		5.8430712890625	0.39387716674804685	0		-0.2887929077148437	5.87925830078125	0		
-0.02577137565612793	-1.8796099722385407E-4	0		0.5070831298828125	-2.428060791015625	0		-1.0836446533203126	0.12866864013671875	0		-0.64613818359375	-2.542544921875	0		2.2357685546875	-0.15848135375976563	0		3.591639892578125	-0.12161773681640625	0		4.89296533203125	-0.05877877807617188	0		5.8428134765625	0.3941217041015625	0		-0.39312368774414064	5.88028515625	0		
-0.0011607789993286132	-4.487450122833252E-4	0		0.5107781677246094	-2.422949951171875	0		-1.0799769287109375	0.13178482055664062	0		-0.670260986328125	-2.526933349609375	0		2.252504638671875	-0.15160816955566406	0		3.59259228515625	-0.1024659423828125	0		4.90256005859375	-0.0597883415222168	0		5.84549267578125	0.40812216186523437	0		-0.26113687133789065	5.89911669921875	0		
-0.023496225357055665	0.004135991096496582	0		0.5005274353027344	-2.413580322265625	0		-1.0862969970703125	0.13708552551269532	0		-0.6523025512695313	-2.506063232421875	0		2.2661455078125	-0.14866668701171876	0		3.639818359375	-0.12312770843505859	0		4.9173076171875	-0.050868297576904295	0		5.84519970703125	0.4084468383789063	0		-0.27571697998046873	5.8895615234375	0		
-0.02699945068359375	3.9109700918197633E-4	0		0.5000979309082031	-2.413378662109375	0		-1.0907823486328125	0.13435697937011717	0		-0.6903875122070312	-2.486189208984375	0		2.286389404296875	-0.16683396911621093	0		3.642492431640625	-0.1169765625	0		4.91687548828125	-0.05066120529174805	0		5.84193701171875	0.395092529296875	0		-0.2893504943847656	5.87899560546875	0		
-0.0055219998359680176	-0.003793471097946167	0		0.5256002197265625	-2.4166328125	0		-1.091230712890625	0.13456011962890624	0		-0.6955596313476563	-2.47089794921875	0		2.297207275390625	-0.151818359375	0		3.633081787109375	-0.11459846496582031	0		4.9312470703125	-0.06070449447631836	0		5.84457177734375	0.4091966247558594	0		-0.29079901123046875	5.88021875	0		
-0.027898778915405275	8.07570993900299E-4	0		0.47531036376953123	-2.407531494140625	0		-1.081719970703125	0.13258741760253906	0		-0.7217639770507812	-2.45723046875	0		2.3107900390625	-0.1498470458984375	0		3.635790771484375	-0.10542620849609376	0		4.9490244140625	-0.04779381942749023	0		5.8587685546875	0.3466905517578125	0		-0.4226666870117187	5.85976318359375	0		
0.049684593200683594	0.0016307710409164428	0		0.5157891845703125	-2.4130458984375	0		-1.074037353515625	0.13964927673339844	0		-0.7089423217773437	-2.443256591796875	0		2.32879296875	-0.12494603729248047	0		3.680237548828125	-0.11199295806884765	0		4.9575478515625	-0.04971285247802734	0		5.86510205078125	0.3779745178222656	0		-0.2746484069824219	5.886333984375	0		
-0.02568025588989258	0.0051763119697570805	0		0.5055556945800781	-2.403654296875	0		-1.0844134521484374	0.1420306396484375	0		-0.6879492797851563	-2.42142724609375	0		2.328381591796875	-0.12471813201904297	0		3.65513232421875	-0.09431346893310547	0		4.9712763671875	-0.04171662902832031	0		5.8611279296875	0.36299859619140623	0		-0.28926022338867186	5.8777939453125	0		
0.04584873580932617	-8.944590091705322E-4	0		0.49431350708007815	-2.397246826171875	0		-1.092908447265625	0.1353737030029297	0		-0.7300086059570312	-2.40447998046875	0		2.3496884765625	-0.14287818908691408	0		3.65651318359375	-0.10810747528076171	0		4.9767802734375	-0.04857185363769531	0		5.86086328125	0.3634447326660156	0		-0.2906621398925781	5.87901806640625	0		
-0.03249219512939453	-0.001304358959197998	0		0.4680760498046875	-2.3935771484375	0		-1.0891748046875	0.13849501037597656	0		-0.7221625366210938	-2.396427001953125	0		2.370599853515625	-0.13002772521972655	0		3.669247802734375	-0.10510081481933593	0		4.9805869140625	-0.041393302917480466	0		5.85283056640625	0.3694205932617188	0		-0.2900538330078125	5.87820068359375	0		
0.04713311004638672	-0.008529655456542969	0		0.49378817749023435	-2.396838623046875	0		-1.083521484375	0.13357272338867188	0		-0.7851344604492188	-2.381123046875	0		2.404287109375	-0.13341143798828126	0		3.6919365234375	-0.10827559661865234	0		4.98927734375	-0.044305740356445314	0		5.85816357421875	0.3436719970703125	0		-0.4237227783203125	5.85975830078125	0		
-0.029880985260009766	0.002020203113555908	0		0.4468494262695312	-2.38381689453125	0		-1.0837091064453126	0.13374465942382813	0		-0.7031824340820313	-2.375404296875	0		2.42941796875	-0.11564683532714844	0		3.69812353515625	-0.08715978240966797	0		5.01630029296875	-0.03254664611816406	0		5.86099755859375	0.35954931640625	0		-0.2906229248046875	5.87857373046875	0		
0.04497823333740234	-1.3837899267673493E-4	0		0.49867044067382815	-2.38956103515625	0		-1.0897322998046874	0.1390089111328125	0		-0.78093310546875	-2.3558603515625	0		2.45917919921875	-0.12297634887695312	0		3.713585205078125	-0.11122283935546876	0		5.02202880859375	-0.04141862106323242	0		5.85679150390625	0.38091134643554686	0		-0.29080584716796876	5.87874169921875	0		
-0.03002527618408203	0.002349613904953003	0		0.49763427734375	-2.3913779296875	0		-1.0897672119140625	0.13915260314941405	0		-0.7049464111328125	-2.3570595703125	0		2.470412109375	-0.10798223876953125	0		3.741885986328125	-0.09251377105712891	0		5.03511865234375	-0.03442422866821289	0		5.8680263671875	0.360074462890625	0		-0.2909179382324219	5.878896484375	0		
0.04192155456542969	-0.0037814459800720214	0		0.4878773498535156	-2.38205126953125	0		-1.0897225341796875	0.13927999877929687	0		-0.7794811401367188	-2.3346015625	0		2.47454833984375	-0.10287364196777343	0		3.74193408203125	-0.092314697265625	0		5.044111328125	-0.037364879608154294	0		5.8680595703125	0.3604737548828125	0		-0.29095843505859376	5.87903564453125	0		
-0.027994314193725587	-0.0054142818450927735	0		0.48281292724609376	-2.3948251953125	0		-1.08368798828125	0.13428457641601563	0		-0.725378662109375	-2.33844140625	0		2.48463916015625	-0.10488256072998046	0		3.752007080078125	-0.09530293273925781	0		5.060076171875	-0.046437225341796874	0		5.864697265625	0.3765799255371094	0		-0.4573968811035156	5.854099609375	0		
0.05428495025634766	-0.0017538180351257325	0		0.5052853698730468	-2.3820966796875	0		-1.065383544921875	0.14005728149414062	0		-0.7838062133789062	-2.319303466796875	0		2.496108154296875	-0.08992422485351563	0		3.78134912109375	-0.08763914489746094	0		5.0775078125	-0.033538928985595705	0		5.86968359375	0.3559815673828125	0		-0.2747246398925781	5.88498046875	0		
-0.026302370071411132	0.006770656108856201	0		0.4957695007324219	-2.37281689453125	0		-1.071020751953125	0.1452358093261719	0		-0.7543117065429688	-2.309738037109375	0		2.49638623046875	-0.08978019714355469	0		3.776769287109375	-0.07938259887695312	0		5.09264111328125	-0.04160725021362305	0		5.87217138671875	0.37701214599609373	0		-0.289703857421875	5.87733544921875	0		
0.05085072326660156	-0.004507700920104981	0		0.4920771484375	-2.377656005859375	0		-1.0706824951171876	0.1452898864746094	0		-0.7769849243164062	-2.3132705078125	0		2.496729736328125	-0.08964543914794922	0		3.781970947265625	-0.08730579376220703	0		5.102982421875	-0.04159009170532227	0		5.87241552734375	0.37737796020507813	0		-0.2904598083496094	5.8794248046875	0		
-0.031687786102294925	1.6669999808073045E-5	0		0.4925343322753906	-2.3775810546875	0		-1.0743603515625	0.1413955078125	0		-0.7514276123046875	-2.30766943359375	0		2.4971279296875	-0.08951863098144532	0		3.799471923828125	-0.08144597625732422	0		5.1044140625	-0.039413810729980465	0		5.872697265625	0.3777490234375	0		-0.29021612548828124	5.8794794921875	0		
-0.006272189140319824	-0.0013771239519119263	0		0.44318930053710937	-2.368642822265625	0		-1.1438287353515626	0.1476400146484375	0		-0.7699025268554688	-2.306311279296875	0		2.505759521484375	-0.07854146575927734	0		3.795876708984375	-0.08321776580810547	0		5.122796875	-0.04253393173217773	0		5.8808037109375	0.3708740234375	0		-0.28898651123046876	5.8775	0		
0.0021751999855041506	-0.0024865119457244873	0		0.5075121459960937	-2.38171826171875	0		-1.0653267822265624	0.14926492309570313	0		-0.7652918090820312	-2.302376220703125	0		2.506228271484375	-0.07842888641357422	0		3.830445556640625	-0.07766060638427734	0		5.14226123046875	-0.042669498443603515	0		5.87769580078125	0.388708984375	0		-0.27650302124023435	5.8893095703125	0		
-0.0022517828941345215	0.0026167800426483154	0		0.43649472045898435	-2.3574267578125	0		-1.064847412109375	0.14924368286132814	0		-0.7626910400390625	-2.300422119140625	0		2.506715576171875	-0.07832379913330079	0		3.843001220703125	-0.07371940612792968	0		5.1510087890625	-0.027613548278808592	0		5.8803310546875	0.40976409912109374	0		-0.2884349670410156	5.87752783203125	0		
-0.004827864170074463	-0.0013274379968643188	0		0.4879286804199219	-2.36629736328125	0		-1.0684288330078124	0.14527723693847655	0		-0.7729526977539063	-2.291257080078125	0		2.503125244140625	-0.08315665435791016	0		3.8735625	-0.07009772491455078	0		5.16809912109375	-0.05071175003051758	0		5.88919091796875	0.40286865234375	0		-0.28912600708007813	5.879537109375	0		
-0.027452856063842773	-0.0079352388381958	0		0.46256878662109374	-2.362835693359375	0		-1.073852783203125	0.1503306427001953	0		-0.7635648803710937	-2.302451416015625	0		2.531635009765625	-0.08255899810791016	0		3.855218505859375	-0.060629608154296875	0		5.17275048828125	-0.041595169067382816	0		5.8895419921875	0.403242431640625	0		-0.28983941650390627	5.88053369140625	0		
-0.0038471589088439942	-0.0013579119443893433	0		0.4979306640625	-2.37544580078125	0		-1.0574781494140626	0.14399237060546874	0		-0.7840054321289063	-2.303135009765625	0		2.5280390625	-0.08741399383544922	0		3.874548583984375	-0.0698343505859375	0		5.182185546875	-0.04457734298706055	0		5.88344580078125	0.40040274047851565	0		-0.42097100830078127	5.85878466796875	0		
-0.022227563858032227	0.006941635131835938	0		0.45272586059570313	-2.361660400390625	0		-1.044833740234375	0.15371585083007813	0		-0.7444339599609375	-2.302869140625	0		2.528519775390625	-0.08735269927978516	0		3.917161376953125	-0.062455295562744144	0		5.205765625	-0.03882147979736328	0		5.8874638671875	0.41613470458984375	0		-0.4055483703613281	5.86747900390625	0		
0.05910696029663086	-0.0014962739944458009	0		0.5031260070800782	-2.370545166015625	0		-1.0584031982421875	0.15188941955566407	0		-0.7808667602539062	-2.30128759765625	0		2.538024169921875	-0.08546012878417969	0		3.902824462890625	-0.05110233688354492	0		5.21938916015625	-0.0299107666015625	0		5.89076123046875	0.4318602294921875	0		-0.2880491027832031	5.8794013671875	0		
-0.024370805740356445	0.002919600009918213	0		0.4917608337402344	-2.36436181640625	0		-1.062001220703125	0.14888876342773438	0		-0.7155568237304688	-2.314471923828125	0		2.546189453125	-0.10255774688720704	0		3.905041259765625	-0.06505545043945313	0		5.21988232421875	-0.027791961669921875	0		5.88812353515625	0.416654541015625	0		-0.28776873779296874	5.8793544921875	0		
-0.0019993829727172853	-0.0015005439519882203	0		0.49123440551757813	-2.36637109375	0		-1.0615614013671875	0.14881982421875	0		-0.7771273803710937	-2.318460205078125	0		2.57952734375	-0.10909788513183594	0		3.914450927734375	-0.06714488983154297	0		5.24001318359375	-0.046033348083496094	0		5.88843994140625	0.41686215209960936	0		-0.28748422241210936	5.879306640625	0		
